<svg width="34" height="34" viewBox="0 0 34 34" fill="none" xmlns="http://www.w3.org/2000/svg">
<path d="M8.49984 7.0835C6.93503 7.0835 5.6665 8.35202 5.6665 9.91683V26.9168C5.6665 28.4816 6.93503 29.7502 8.49984 29.7502H22.6665C19.5369 29.7502 16.9998 27.2131 16.9998 24.0835C16.9998 20.9539 19.5369 18.4168 22.6665 18.4168C25.7961 18.4168 28.3332 20.9539 28.3332 24.0835V9.91683C28.3332 8.35202 27.0646 7.0835 25.4998 7.0835H8.49984Z" fill="black" fill-opacity="0.15"/>
<path d="M22.6665 21.5334V23.924L23.9415 25.3584M28.3332 12.75V9.91667C28.3332 8.35186 27.0646 7.08333 25.4998 7.08333H21.2498M12.7498 29.75H8.49984C6.93503 29.75 5.6665 28.4815 5.6665 26.9167V15.5833M21.2498 4.25V7.08333M21.2498 9.91667V7.08333M12.7498 4.25V7.08333M12.7498 9.91667V7.08333M21.2498 7.08333H12.7498M12.7498 7.08333H8.49984C6.93503 7.08333 5.6665 8.35186 5.6665 9.91667V15.5833M12.7498 15.5833H5.6665M29.0415 24.0833C29.0415 27.6042 26.1873 30.4583 22.6665 30.4583C19.1457 30.4583 16.2915 27.6042 16.2915 24.0833C16.2915 20.5625 19.1457 17.7083 22.6665 17.7083C26.1873 17.7083 29.0415 20.5625 29.0415 24.0833Z" stroke="white" stroke-width="2" stroke-linecap="round" stroke-linejoin="round"/>
</svg>
