<svg width="8" height="16" viewBox="0 0 8 16" fill="none" xmlns="http://www.w3.org/2000/svg">
<path d="M7.46764 7.04021L1.91077 0.374243C1.70116 0.131391 1.42043 -0.00298718 1.12903 5.03982e-05C0.837632 0.00308797 0.558886 0.143299 0.352828 0.390483C0.14677 0.637668 0.0298877 0.97205 0.0273556 1.32161C0.0248234 1.67117 0.136844 2.00794 0.339289 2.25938L5.11042 7.98278L0.339289 13.7062C0.233142 13.8292 0.148475 13.9763 0.090229 14.1389C0.031983 14.3016 0.00132428 14.4765 4.19618e-05 14.6535C-0.00124036 14.8306 0.0268793 15.0061 0.0827602 15.17C0.138641 15.3338 0.221164 15.4827 0.325514 15.6078C0.429864 15.733 0.553951 15.832 0.690535 15.899C0.827119 15.9661 0.973464 15.9998 1.12103 15.9983C1.2686 15.9967 1.41443 15.96 1.55003 15.8901C1.68562 15.8202 1.80825 15.7186 1.91077 15.5913L7.46764 8.92535C7.67599 8.67534 7.79304 8.3363 7.79304 7.98278C7.79304 7.62926 7.67599 7.29022 7.46764 7.04021Z" fill="black"/>
</svg>
