<svg width="20" height="9" viewBox="0 0 20 9" fill="none" xmlns="http://www.w3.org/2000/svg">
<path d="M18.7406 4.30515C18.6906 3.83327 18.3937 3.57077 18.2531 3.4739L18.1812 3.05827C18.175 3.0239 18.1594 2.99577 18.1344 2.97077C17.5469 2.3989 13.7594 2.24265 12.9969 2.21765C12.3594 1.06765 11.65 0.345774 11.6187 0.314524C11.6 0.295774 11.5781 0.283274 11.5531 0.273899C10.3688 -0.0854762 3.2125 0.00514841 1.79062 0.0238984C1.5625 0.0238984 1.3625 0.167649 1.29375 0.380149C1.17812 0.730149 1.09375 1.20827 1.03125 1.73015H0.590625C0.05 1.73015 0.003125 3.05827 0 3.46452C0 3.92077 0.034375 4.90515 0.4 5.1364C0.375 5.4864 0.41875 5.61452 0.4625 5.68327C0.5625 5.8489 0.95 5.91765 1.61875 5.89265C1.69062 5.89265 1.75312 5.8364 1.76875 5.76452L1.90313 5.1114L2.2875 4.31765C2.42188 4.04577 2.69063 3.88015 2.9875 3.88015H4.15625C4.39375 3.88015 4.61562 3.9864 4.76562 4.17077L5.92188 5.61765V6.1364C5.92188 6.2239 5.99375 6.29577 6.08125 6.29577H14.1781C14.2875 6.46452 14.5844 6.85827 15.0781 7.08015C15.3906 7.64265 15.9875 8.0239 16.675 8.0239C17.6812 8.0239 18.5 7.20515 18.5 6.1989C18.5 6.17702 18.5 6.15515 18.4969 6.13327C18.6125 6.00515 18.6906 5.89577 18.7344 5.82077H19.225C19.3125 5.82077 19.3844 5.7489 19.3844 5.6614V4.88952C19.3844 4.84265 19.3625 4.79577 19.325 4.76765L18.75 4.29577L18.7406 4.30515ZM0.503125 4.7864C0.4125 4.60202 0.3125 4.14577 0.31875 3.45827C0.325 2.58327 0.5 2.0864 0.59375 2.05202H1C0.90625 2.95515 0.86875 3.9364 0.85625 4.66452H0.771875C0.665625 4.66452 0.571875 4.7114 0.50625 4.7864H0.503125ZM14.1313 5.50202C14.1125 5.53015 14.1031 5.5614 14.1031 5.59265V5.98327H6.2375V5.56765C6.2375 5.53015 6.225 5.49577 6.20312 5.46765L5.00938 3.97702C4.8 3.71765 4.4875 3.56765 4.15312 3.56765H2.98438C2.56562 3.56765 2.1875 3.80202 2 4.18327L1.60625 4.99577C1.60625 4.99577 1.59687 5.02077 1.59375 5.03327L1.48125 5.58015C1.12812 5.58327 0.7875 5.55202 0.734375 5.51765C0.734375 5.51452 0.6875 5.4239 0.734375 5.00827C0.734375 4.98952 0.753125 4.97702 0.771875 4.97702H1.0125C1.1 4.97702 1.16875 4.90827 1.17188 4.82077C1.17188 4.7489 1.17188 4.67077 1.175 4.59265C1.1875 4.0489 1.21875 3.08015 1.30938 2.16452C1.3125 2.12702 1.31562 2.09265 1.32187 2.05515C1.38437 1.44265 1.475 0.867649 1.60313 0.477024C1.63125 0.392649 1.70938 0.339524 1.8 0.339524C2.65625 0.327024 10.1438 0.223899 11.4281 0.564524C11.5687 0.711399 12.2125 1.41765 12.7656 2.44577C12.7937 2.49577 12.8438 2.52702 12.9 2.53015C14.5844 2.58015 17.3687 2.79577 17.8813 3.16765L17.9531 3.59577C17.9625 3.64577 17.9906 3.6864 18.0344 3.70827C18.0375 3.70827 18.325 3.86452 18.4094 4.22702H18.2156C18.125 4.0614 17.875 3.8114 17.1969 3.8114H15.7125C15.4656 3.8114 15.2312 3.93327 15.0875 4.1364L14.1281 5.50202H14.1313ZM16.6688 7.7114C16.0594 7.7114 15.5375 7.3489 15.3 6.82702C15.2906 6.80515 15.2812 6.78327 15.2719 6.76452C15.2406 6.68952 15.2156 6.60827 15.1969 6.52702C15.1938 6.5114 15.1906 6.49577 15.1875 6.48015C15.1719 6.39265 15.1594 6.2989 15.1594 6.20515C15.1594 5.3739 15.8344 4.6989 16.6656 4.6989H16.6719C16.7687 4.6989 16.8656 4.70827 16.9562 4.72702C17.0094 4.7364 17.0594 4.75515 17.1094 4.77077C17.15 4.78327 17.1906 4.79265 17.2281 4.80827C17.2875 4.83327 17.3438 4.86452 17.3969 4.89577C17.4219 4.9114 17.45 4.92077 17.475 4.93952C17.5312 4.9739 17.5812 5.01765 17.6312 5.05827C17.6531 5.07702 17.675 5.09265 17.6969 5.1114C17.7437 5.15515 17.7844 5.20515 17.825 5.25202C17.8438 5.27702 17.8656 5.2989 17.8844 5.3239C17.9188 5.3739 17.95 5.4239 17.9781 5.47702C17.9937 5.50827 18.0125 5.5364 18.0281 5.56765C18.0531 5.62077 18.0719 5.6739 18.0906 5.73015C18.1031 5.76765 18.1156 5.80202 18.125 5.83952C18.1375 5.89577 18.1469 5.95202 18.1531 6.00827C18.1625 6.07077 18.1719 6.13327 18.1719 6.1989C18.1719 7.03015 17.4969 7.70515 16.6656 7.70515L16.6688 7.7114ZM19.0562 5.50827H18.6344C18.5719 5.50827 18.5156 5.54577 18.4906 5.5989C18.4906 5.5989 18.4688 5.64265 18.425 5.7114C18.2094 4.94265 17.4969 4.38015 16.6688 4.38015C15.9156 4.38015 15.2656 4.83952 14.9875 5.49577C14.8937 5.71452 14.8438 5.95515 14.8438 6.20515C14.8438 6.34265 14.8594 6.48015 14.8906 6.6114C14.6313 6.41452 14.4719 6.18015 14.4219 6.0989V5.64265L15.3531 4.31765C15.4375 4.1989 15.5719 4.12702 15.7156 4.12702H17.2C17.8813 4.12702 17.9562 4.40515 17.9562 4.40515C17.9656 4.48327 18.0344 4.54265 18.1125 4.54265H18.5375L19.0594 4.97077V5.50827H19.0562Z" fill="black"/>
</svg>
