<svg width="13" height="10" viewBox="0 0 13 10" fill="none" xmlns="http://www.w3.org/2000/svg">
<path d="M2.80239 7.92019C2.62712 7.92019 2.48501 7.78901 2.48501 7.62722C2.48501 7.46543 2.62712 7.33425 2.80239 7.33425H2.82143C2.9967 7.33425 3.13881 7.46543 3.13881 7.62722C3.13881 7.78901 2.9967 7.92019 2.82143 7.92019H2.80239ZM11.4282 7.33425H4.05201C3.87674 7.33425 3.73463 7.46543 3.73463 7.62722C3.73463 7.78901 3.87674 7.92019 4.05201 7.92019H11.4282C11.8259 7.92019 12.1494 8.21883 12.1494 8.58593C12.1494 8.95303 11.8259 9.2517 11.4282 9.2517H1.57181C1.17411 9.2517 0.850586 8.95303 0.850586 8.58593C0.850586 8.21883 1.17411 7.92019 1.57181 7.92019C1.74708 7.92019 1.88919 7.78901 1.88919 7.62722C1.88919 7.46543 1.74708 7.33425 1.57181 7.33425C0.824129 7.33425 0.21582 7.89577 0.21582 8.58593C0.21582 9.27612 0.824129 9.83764 1.57181 9.83764H11.4282C12.1758 9.83764 12.7842 9.27612 12.7842 8.58593C12.7842 7.89577 12.1759 7.33425 11.4282 7.33425ZM12.7842 4.99999C12.7842 5.69021 12.1759 6.25172 11.4282 6.25172H1.57181C0.824129 6.2517 0.21582 5.69018 0.21582 4.99999C0.21582 4.30981 0.824129 3.74829 1.57181 3.74829H11.4282C12.1759 3.74829 12.7842 4.30981 12.7842 4.99999ZM12.1494 4.99999C12.1494 4.63289 11.8259 4.33423 11.4282 4.33423H1.57181C1.17411 4.33423 0.850586 4.63289 0.850586 4.99999C0.850586 5.36712 1.17411 5.66578 1.57181 5.66578H11.4282C11.8259 5.66576 12.1494 5.3671 12.1494 4.99999ZM10.1786 0.748291H10.1976C10.3729 0.748291 10.515 0.617135 10.515 0.455322C10.515 0.293533 10.3729 0.162354 10.1976 0.162354H10.1786C10.0033 0.162354 9.86119 0.293533 9.86119 0.455322C9.86119 0.617135 10.0033 0.748291 10.1786 0.748291ZM1.57181 2.66576H11.4282C12.1758 2.66576 12.7842 2.10424 12.7842 1.41406C12.7842 0.723869 12.1758 0.162354 11.4282 0.162354C11.2529 0.162354 11.1108 0.293533 11.1108 0.455322C11.1108 0.617135 11.2529 0.748291 11.4282 0.748291C11.8259 0.748291 12.1494 1.04696 12.1494 1.41406C12.1494 1.78116 11.8259 2.07982 11.4282 2.07982H1.57181C1.17411 2.07982 0.850586 1.78116 0.850586 1.41406C0.850586 1.04696 1.17411 0.748291 1.57181 0.748291H8.94799C9.12326 0.748291 9.26537 0.617135 9.26537 0.455322C9.26537 0.293533 9.12326 0.162354 8.94799 0.162354H1.57181C0.824129 0.162354 0.21582 0.723846 0.21582 1.41406C0.21582 2.10427 0.824129 2.66576 1.57181 2.66576Z" fill="black"/>
</svg>
