<svg width="12" height="11" viewBox="0 0 12 11" fill="none" xmlns="http://www.w3.org/2000/svg">
<path fill-rule="evenodd" clip-rule="evenodd" d="M4.20685 5.5C4.20683 5.17489 4.31199 4.85707 4.50901 4.58673C4.70604 4.3164 4.98609 4.1057 5.31375 3.98127C5.64141 3.85685 6.00196 3.82428 6.3498 3.8877C6.69765 3.95112 7.01717 4.10767 7.26796 4.33756C7.51875 4.56744 7.68954 4.86034 7.75874 5.17921C7.82793 5.49808 7.79242 5.82859 7.6567 6.12896C7.52098 6.42933 7.29114 6.68606 6.99625 6.86668C6.70136 7.04731 6.35466 7.14371 6 7.14371C5.5246 7.14323 5.06882 6.9699 4.73265 6.66175C4.39649 6.3536 4.20739 5.9358 4.20685 5.5ZM2.4422 4.89136L1.60549 4.99373V6.00623L2.4422 6.10871C2.4707 6.11219 2.49734 6.1236 2.51854 6.1414C2.53974 6.1592 2.55446 6.18253 2.56073 6.20825C2.64908 6.57006 2.80517 6.91509 3.02204 7.22803C3.03747 7.25029 3.04507 7.27635 3.04381 7.30269C3.04256 7.32903 3.0325 7.35438 3.01501 7.37531L2.50218 7.99058L3.28314 8.7065L3.95443 8.23619C3.97725 8.22018 4.00489 8.21097 4.0336 8.20982C4.06231 8.20867 4.09072 8.21562 4.11498 8.22975C4.45626 8.42866 4.83264 8.57172 5.22734 8.65253C5.25542 8.65829 5.2809 8.6718 5.30034 8.69125C5.31978 8.71071 5.33224 8.73516 5.33604 8.76131L5.44784 9.52849H6.55223L6.66403 8.76148C6.6678 8.73533 6.68025 8.71087 6.69969 8.69141C6.71913 8.67196 6.74462 8.65845 6.77271 8.65272C7.16737 8.5718 7.54373 8.42875 7.88507 8.22994C7.90937 8.21581 7.93781 8.20884 7.96657 8.21C7.99532 8.21115 8.02299 8.22036 8.04585 8.23639L8.71691 8.70661L9.49777 7.99069L8.98482 7.37542C8.96741 7.35444 8.9574 7.32909 8.95614 7.30275C8.95489 7.27641 8.96244 7.25035 8.97779 7.22806C9.19475 6.91522 9.3508 6.57022 9.43899 6.20845C9.4453 6.18272 9.46006 6.15938 9.48127 6.14157C9.50249 6.12376 9.52914 6.11233 9.55766 6.10882L10.3946 6.00634V4.99373L9.55784 4.89136C9.52933 4.88784 9.50268 4.87641 9.48147 4.85859C9.46026 4.84078 9.44551 4.81744 9.4392 4.79171C9.35084 4.42996 9.1948 4.08497 8.978 3.77203C8.96254 3.74977 8.95492 3.72369 8.95618 3.69732C8.95743 3.67096 8.96751 3.64558 8.98503 3.62465L9.49775 3.00949L8.71689 2.29357L8.04559 2.76379C8.02279 2.77985 7.99515 2.78908 7.96643 2.79023C7.9377 2.79138 7.90929 2.7844 7.88505 2.77023C7.54375 2.57135 7.16737 2.4283 6.77268 2.34745C6.74462 2.3417 6.71916 2.3282 6.69973 2.30876C6.68029 2.28933 6.66783 2.26491 6.664 2.23878L6.55221 1.47158H5.44781L5.33602 2.23878C5.33223 2.26492 5.31978 2.28937 5.30033 2.30881C5.28089 2.32825 5.2554 2.34174 5.22732 2.34745C4.83266 2.4284 4.4563 2.57144 4.11495 2.77023C4.09065 2.78439 4.06218 2.79136 4.03341 2.79021C4.00464 2.78906 3.97695 2.77983 3.95408 2.76379L3.28311 2.29357L2.50216 3.00949L3.01499 3.62465C3.03247 3.6456 3.04252 3.67097 3.04378 3.69733C3.04504 3.72368 3.03744 3.74976 3.02202 3.77203C2.80506 4.0849 2.64897 4.42991 2.5607 4.79171C2.55443 4.81743 2.53971 4.84078 2.51851 4.8586C2.49732 4.87641 2.4707 4.88785 2.4422 4.89136ZM2.30908 4.64759L1.44628 4.75321C1.41251 4.75732 1.38151 4.77254 1.35906 4.79603C1.3366 4.81952 1.32421 4.84968 1.32419 4.88091V6.11905C1.32419 6.1503 1.33656 6.18049 1.35902 6.204C1.38148 6.22751 1.41249 6.24274 1.44628 6.24686L2.30908 6.35248C2.39941 6.68209 2.54217 6.99772 2.73278 7.28922L2.2038 7.92363C2.18313 7.94845 2.173 7.9793 2.17527 8.01046C2.17755 8.04161 2.19208 8.07095 2.21617 8.09302L3.17132 8.96857C3.19537 8.99066 3.22736 9.00399 3.26134 9.00606C3.29531 9.00813 3.32895 8.99881 3.35598 8.97983L4.04804 8.49481C4.36601 8.66957 4.71033 8.80046 5.06991 8.88323L5.18525 9.67435C5.18974 9.70533 5.20636 9.73376 5.232 9.75434C5.25765 9.77493 5.29058 9.78627 5.32468 9.78627H6.67509C6.70919 9.78626 6.74213 9.77492 6.76779 9.75434C6.79346 9.73375 6.8101 9.70533 6.81464 9.67435L6.92986 8.88332C7.28944 8.80057 7.63377 8.6697 7.95173 8.49492L8.6439 8.97983C8.67094 8.9988 8.70457 9.00812 8.73854 9.00605C8.77252 9.00398 8.80451 8.99066 8.82857 8.96857L9.78357 8.09302C9.80766 8.07095 9.8222 8.04161 9.82448 8.01046C9.82676 7.97931 9.81663 7.94845 9.79597 7.92363L9.26687 7.28912C9.4576 6.99767 9.60037 6.68202 9.69059 6.35237L10.5535 6.24675C10.5873 6.24266 10.6183 6.22743 10.6408 6.20392C10.6633 6.18041 10.6757 6.15021 10.6757 6.11894V4.88091C10.6757 4.84966 10.6633 4.81949 10.6408 4.796C10.6183 4.77251 10.5873 4.7573 10.5535 4.75321L9.6908 4.64759C9.60044 4.31797 9.45764 4.00233 9.26698 3.71084L9.79597 3.07641C9.81665 3.05159 9.8268 3.02071 9.82452 2.98954C9.82224 2.95837 9.80769 2.92902 9.78357 2.90694L8.82868 2.03145C8.80463 2.00936 8.77263 1.99604 8.73866 1.99397C8.70469 1.9919 8.67105 2.00122 8.64402 2.02019L7.95184 2.50511C7.63388 2.33035 7.28956 2.19951 6.92997 2.11679L6.81475 1.32565C6.81021 1.29467 6.79357 1.26626 6.7679 1.24568C6.74224 1.2251 6.7093 1.21376 6.67521 1.21376H5.32475C5.29066 1.21375 5.25773 1.22509 5.23208 1.24567C5.20643 1.26626 5.18982 1.29468 5.18532 1.32565L5.06998 2.11679C4.7104 2.19952 4.36608 2.33037 4.04811 2.50511L3.35605 2.02019C3.32902 2.00122 3.29538 1.9919 3.26141 1.99397C3.22743 1.99604 3.19544 2.00936 3.17139 2.03145L2.2162 2.9069C2.19211 2.92899 2.17759 2.95834 2.17531 2.98951C2.17303 3.02067 2.18316 3.05153 2.20382 3.07637L2.7328 3.7108C2.54219 4.0023 2.3994 4.31797 2.30908 4.64759ZM1.32279 8.86454C1.35335 8.86458 1.38308 8.85539 1.40737 8.8384C1.43712 8.8178 1.45673 8.78722 1.46189 8.75338C1.46706 8.71954 1.45735 8.68521 1.43491 8.65792C0.682832 7.74981 0.277458 6.64016 0.281276 5.5C0.281276 2.6094 2.84669 0.257677 6 0.257677C7.37681 0.255491 8.70782 0.710831 9.74644 1.53934L8.75228 1.45611C8.71513 1.453 8.67816 1.46355 8.6495 1.48543C8.62084 1.50731 8.60284 1.53873 8.59945 1.57278C8.59607 1.60683 8.60757 1.64072 8.63144 1.66699C8.65531 1.69326 8.68959 1.70977 8.72673 1.71287L10.1303 1.83037C10.1346 1.83075 10.139 1.83092 10.1433 1.83089C10.1628 1.83087 10.1821 1.82712 10.2 1.81988C10.2178 1.81264 10.2339 1.80207 10.247 1.78885C10.2602 1.77562 10.2702 1.76003 10.2764 1.74306C10.2826 1.72609 10.2849 1.70812 10.2832 1.69029L10.155 0.403625C10.1513 0.369783 10.1332 0.338641 10.1046 0.316983C10.076 0.295325 10.0392 0.284905 10.0023 0.287994C9.96535 0.291084 9.93123 0.307431 9.90738 0.333476C9.88352 0.35952 9.87186 0.393151 9.87493 0.427043L9.96957 1.37608C9.1037 0.675644 8.03572 0.219159 6.89382 0.0614112C5.75192 -0.0963363 4.58462 0.0513573 3.53203 0.486764C2.47944 0.922171 1.58629 1.62679 0.959773 2.51605C0.333261 3.4053 1.23749e-05 4.44141 2.7047e-05 5.5C-0.00390676 6.69625 0.42137 7.86049 1.21033 8.81334C1.22348 8.82928 1.24048 8.8422 1.26001 8.85108C1.27953 8.85997 1.30099 8.86459 1.32279 8.86454ZM10.5651 2.34221C11.3171 3.25029 11.7225 4.35989 11.7187 5.5C11.7187 8.39063 9.15322 10.7423 6 10.7423C4.62316 10.7446 3.29208 10.2893 2.25346 9.46073L3.24775 9.54394C3.28472 9.54675 3.32141 9.53606 3.34982 9.51419C3.37823 9.49232 3.39606 9.46105 3.39943 9.42718C3.4028 9.39331 3.39144 9.3596 3.36781 9.33338C3.34418 9.30716 3.31021 9.29056 3.27329 9.28719L1.86967 9.16963C1.84913 9.16788 1.82842 9.1703 1.80901 9.17673C1.78961 9.18315 1.77198 9.19341 1.7574 9.20678C1.74281 9.22016 1.73161 9.23631 1.72461 9.2541C1.7176 9.27189 1.71496 9.29088 1.71686 9.30971L1.84502 10.5964C1.84819 10.6284 1.86431 10.6582 1.89021 10.6799C1.91611 10.7016 1.94992 10.7137 1.98501 10.7137C1.98909 10.7137 1.9934 10.7135 1.99783 10.7131C2.03497 10.71 2.06924 10.6935 2.09311 10.6672C2.11698 10.6409 2.12848 10.607 2.1251 10.573L2.03034 9.62393C2.89621 10.3244 3.9642 10.7808 5.1061 10.9386C6.24801 11.0963 7.41531 10.9486 8.46791 10.5132C9.52051 10.0778 10.4137 9.37322 11.0402 8.48396C11.6667 7.59471 12 6.5586 12 5.5C12.0039 4.30378 11.5787 3.13955 10.7898 2.1867C10.7673 2.1594 10.7339 2.14141 10.6969 2.13669C10.6599 2.13196 10.6224 2.14089 10.5927 2.16151C10.5629 2.18213 10.5433 2.21275 10.5381 2.24663C10.5329 2.28052 10.5426 2.31491 10.5651 2.34221Z" fill="black"/>
</svg>
